<?xml version="1.0" encoding="UTF-8"?>
<svg id="Layer_1" xmlns="http://www.w3.org/2000/svg" width="96" height="96" baseProfile="tiny" version="1.2" viewBox="0 0 96 96">
  <!-- Generator: Adobe Illustrator 30.1.0, SVG Export Plug-In . SVG Version: 2.1.1 Build 136)  -->
  <circle cx="48.04" cy="48.02" r="48.02" fill="#231f20"/>
  <path d="M30.97,23.04v17.9h-3.97l-7.06-9.02v9.02h-5.39v-17.9h4.46l6.57,8.97v-8.97h5.39Z" fill="#fff"/>
  <path d="M39.01,27.7v2.16h6.87v4.41h-6.87v2.01h8.34v4.66h-13.73v-17.9h13.73v4.66h-8.34Z" fill="#fff"/>
  <path d="M66.74,23.04l-6.3,17.9h-6.25l-6.3-17.9h5.89l3.65,11.7,3.43-11.7h5.88Z" fill="#fff"/>
  <path d="M73.21,27.7v2.16h6.87v4.41h-6.87v2.01h8.34v4.66h-13.73v-17.9h13.73v4.66h-8.34Z" fill="#fff"/>
  <path d="M24.72,58.04h4.68v2.52c-.95.15-1.88.25-2.71.25-3.57,0-5.38-2.09-5.38-5.57,0-3.26,1.85-5.38,5.75-5.38,1.78,0,3.72.58,5.14,1.63l3.02-4.74c-2.12-1.78-5.02-3.05-8.77-3.05-7.63,0-11.91,4.15-11.91,11.54s4.22,11.54,11.72,11.54c3.75,0,6.86-.74,8.98-2.03v-11.63h-10.52v4.92Z" fill="#fff"/>
  <polygon points="43.46 44.01 35.86 66.47 42.63 66.47 42.63 66.47 52.97 66.47 52.97 66.47 59.73 66.47 51.52 44.01 43.46 44.01" fill="#fff"/>
  <polygon points="74.78 44.01 74.78 55.27 66.53 44.01 60.93 44.01 60.93 66.47 67.7 66.47 67.7 55.15 76.56 66.47 81.55 66.47 81.55 44.01 74.78 44.01" fill="#fff"/>
  <path d="M47.72,55.07l.29,1.82c.09.29.41.31.52.45.03.04.35.72.35.76.01.15-.09.22-.09.31,0,.56.17,1.27.16,1.82,0,.13-.16.27-.13.45l.24.1.03.1c-.16.48-.35.78-.8,1.02s-1.11.16-1.02.83h-.28c-.22-.23,0-.52,0-.68,0-.08-.1-.19-.11-.33-.02-.32.14-.6-.06-.96l.33-.2c.12-.15-.06-.46-.07-.65-.05-.68.11-1.75-.1-2.37-.04-.12-.21-.26-.21-.36,0-.07.11-.16.11-.26,0-.12-.15-.49-.11-.71.02-.11.23-.17.31-.27.15-.17.3-.7.45-.83.07-.06.11-.05.2-.04Z" fill="#fff"/>
  <path d="M33.21,67.47l2.59-1.97c.75-.15,1.01-.38,1.56-.81.36-.28.9-.31,1.35-.45.18-.05.34-.19.5-.21.47-.08,1-.07,1.47-.25.16-.07.53-.42.72-.5.24-.1,1.08-.21,1.38-.26.08-.01.26.01.3-.01.02-.02.04-.19.19-.26.21-.09.52-.2.76-.29.19-.07.62-.12.69-.36s-.13-.4.21-.55c.44-.19.68-.11,1-.6.13-.21.07-.27.1-.5l-.12-.07c.05-.17.11-.45.13-.63s-.04-.3-.05-.46.04-.61,0-.75c-.02-.07-.12-.13-.17-.21-.31-.59.26-1.24.38-1.82.1-.52-.23-.34-.39-.64-.07-.14-.08-.41-.06-.56.03-.19.17-.32.2-.43.04-.14.05-.17.08-.29.03-.09-.01-.2,0-.28.01-.05.12-.05.15-.11s.02-.16.05-.24c.23-.54.47-1.12.56-1.71.09-.65-.05-1.3.22-1.92.06-.13.19-.25.23-.4l-.16-.24.29-.3c-.16-.05-.2-.3-.31-.36-.09-.05-.18-.02-.25-.08-.11-.09-.39-.63-.39-.76.03-.86.87-1.42,1.68-1.28.28.05.6.41.67.67.09.33-.09.51.33.68,0,.12-.61-.01-.54.28s.21.09.33.05c.06-.02.12.02.17,0,.11-.04.49-.29.59-.21.06.13.04.27.09.41.05.12.13.32.19.44.06.14.22.22.26.45.05.31-.12.39-.12.58s.1.54.13.76c.03.34.04.66.09,1,.07.48.05,1.26,0,1.76s-.47.9-.53,1.27c-.01.07.04.21.03.33,0,.04-.1.38-.11.4-.05.09-.47.21-.48.36.03.24.08.52.09.75,0,.15-.06.36-.04.46,0,.07.16.29.2.39.24.58.32,1.16.46,1.77.06.25.1.51.18.75,0,.19-.29.31-.3.33,0,.09.13.17.13.25,0,.06-.08.11-.08.17,0,.05.12.24.13.38s-.04.26-.04.4c.28.02.69-.14.94.04.05.04.06.11.12.15.83.57,2.61-.05,3.57.21.07.04.23.54.32.65.22.26.65.41.89.65.1.1.18.28.25.36.08.09.3.12.31.27,0,.08-.09.22.01.31.09.08.63.18.8.31.15.11.21.34.28.39.06.04.2.04.29.09.35.17.9.42,1.28.48.29.04.57-.07.84-.04.2.02.36.22.61.15l2.19,1.66h-29.37ZM47.79,56.98c-.06,0-.08-.01-.13.03-.1.09-.2.43-.29.54-.05.06-.19.1-.2.17-.02.14.07.38.07.46,0,.07-.07.12-.07.17,0,.06.11.15.13.23.14.4.03,1.09.06,1.53,0,.13.13.33.05.42l-.21.13c.13.24.02.42.04.62,0,.09.07.16.07.21,0,.11-.14.3,0,.44h.18c-.06-.44.37-.39.66-.54s.42-.35.52-.66l-.02-.06-.15-.06c-.02-.12.08-.2.08-.29,0-.36-.1-.82-.1-1.18,0-.05.07-.1.06-.2,0-.03-.21-.47-.23-.49-.07-.09-.28-.11-.34-.29l-.19-1.18Z"/>
  <path d="M32.13,75.63c-.35,0-.67-.08-.95-.25-.28-.16-.5-.39-.66-.67-.16-.28-.24-.6-.24-.95s.08-.67.24-.96c.16-.28.38-.51.66-.67.28-.17.59-.25.94-.25.28,0,.52.05.74.15.22.1.41.25.55.43.15.19.25.41.31.67v1.22c-.06.26-.17.48-.32.67-.15.19-.33.34-.55.44-.22.1-.46.15-.73.15ZM32.16,75.4c.45,0,.8-.15,1.07-.45.27-.3.4-.7.4-1.19,0-.33-.06-.62-.18-.87-.12-.25-.3-.44-.52-.58-.22-.14-.48-.21-.78-.21-.31,0-.59.07-.83.21-.24.14-.43.34-.57.58-.14.25-.21.53-.21.85s.07.6.21.85c.14.25.33.44.58.58.25.14.53.21.84.21ZM33.62,75.55v-.96l.07-.89-.07-.87v-.87h.24v3.59h-.24Z" fill="#fff"/>
  <path d="M35.11,75.55v-5.43h.24v5.43h-.24Z" fill="#fff"/>
  <path d="M36.59,77.08v-5.12h.24v.87l-.08.87.08.89v2.49h-.24ZM38.38,75.63c-.27,0-.52-.05-.74-.16-.23-.1-.42-.25-.58-.44-.16-.19-.27-.41-.33-.67v-1.22c.06-.27.17-.49.34-.68.16-.19.36-.33.58-.43.23-.1.47-.15.73-.15.34,0,.65.08.92.25s.48.39.64.67.23.6.23.96-.08.67-.23.95-.37.5-.64.67c-.27.16-.58.25-.92.25ZM38.33,75.4c.31,0,.59-.07.82-.21.24-.14.42-.34.56-.58.14-.25.2-.53.2-.85s-.07-.61-.2-.85c-.14-.25-.32-.44-.55-.58-.23-.14-.5-.21-.8-.21s-.57.07-.8.21c-.23.14-.41.33-.54.58-.13.25-.2.53-.2.86s.06.6.19.85c.13.25.3.44.53.58.23.14.49.21.78.21Z" fill="#fff"/>
  <path d="M41.3,71.07c-.07,0-.12-.03-.17-.08s-.07-.11-.07-.18c0-.07.02-.13.07-.18.05-.05.1-.07.17-.07.07,0,.13.02.18.07.05.05.07.11.07.18,0,.07-.02.13-.07.18-.05.05-.11.08-.18.08ZM41.19,75.55v-3.59h.24v3.59h-.24Z" fill="#fff"/>
  <path d="M42.68,75.55v-3.59h.24v3.59h-.24ZM45.46,75.55v-2.14c0-.39-.11-.7-.34-.94-.22-.24-.52-.36-.9-.36-.25,0-.48.06-.67.17-.19.11-.35.26-.46.46-.11.19-.17.42-.17.67l-.16-.09c0-.27.07-.51.2-.73.13-.21.31-.38.54-.51.23-.12.48-.19.77-.19s.54.07.75.2c.22.13.38.31.5.54.12.23.18.49.18.79v2.14h-.24Z" fill="#fff"/>
  <path d="M48.52,75.63c-.36,0-.68-.08-.96-.25s-.51-.39-.67-.67-.25-.6-.25-.96.08-.67.24-.95c.16-.28.38-.5.65-.67.28-.16.59-.25.94-.25.32,0,.61.07.85.21s.44.34.58.6c.14.25.21.55.21.88,0,.02,0,.05,0,.1,0,.04,0,.1-.02.17h-3.28v-.23h3.13l-.07.05c.02-.31-.03-.58-.14-.81-.11-.23-.28-.42-.5-.55-.22-.13-.47-.2-.77-.2-.31,0-.59.07-.82.21-.24.14-.42.33-.55.57-.13.24-.2.52-.2.85s.07.62.21.87c.14.25.33.44.58.58.25.14.54.21.87.21.25,0,.48-.05.69-.14.21-.09.39-.23.53-.42l.16.16c-.16.19-.37.34-.61.46s-.52.17-.81.17Z" fill="#fff"/>
  <path d="M54.51,75.63c-.35,0-.66-.08-.94-.25s-.5-.39-.66-.68c-.16-.29-.25-.61-.25-.96s.08-.66.25-.94c.16-.28.39-.5.66-.67s.59-.25.94-.25c.26,0,.5.05.73.14.23.1.42.23.58.4l-.16.16c-.14-.15-.31-.27-.51-.35s-.41-.13-.64-.13c-.3,0-.57.07-.81.21s-.43.34-.57.58c-.14.24-.21.52-.21.83s.07.6.21.85c.14.25.33.45.57.59s.51.22.81.22c.23,0,.45-.04.65-.13s.37-.21.52-.36l.16.16c-.17.18-.37.31-.6.41-.23.1-.48.14-.74.14Z" fill="#fff"/>
  <path d="M56.75,75.55v-5.43h.24v5.43h-.24Z" fill="#fff"/>
  <path d="M59.61,75.63c-.28,0-.53-.07-.75-.2-.22-.13-.39-.32-.52-.55-.12-.24-.19-.51-.19-.82v-2.09h.24v2.08c0,.27.05.5.15.71.1.21.24.37.43.48.18.12.4.18.64.18.36,0,.66-.13.88-.38.22-.25.34-.58.34-.98v-2.08h.24v2.09c0,.31-.06.58-.19.82s-.3.42-.51.56c-.22.13-.47.2-.76.2Z" fill="#fff"/>
  <path d="M62.23,75.55v-5.43h.24v2.71l-.08.87.08.89v.96h-.24ZM64.02,75.63c-.27,0-.52-.05-.74-.16s-.42-.25-.58-.44c-.16-.19-.27-.41-.33-.67v-1.22c.06-.27.17-.49.34-.68.16-.19.36-.33.59-.43.23-.1.47-.15.73-.15.34,0,.65.08.92.25s.48.39.64.67c.16.28.23.6.23.96s-.08.67-.23.95c-.15.28-.37.5-.64.67s-.58.25-.92.25ZM63.97,75.4c.31,0,.59-.07.82-.21.24-.14.42-.34.56-.58s.2-.53.2-.85-.07-.61-.2-.85c-.14-.25-.32-.44-.55-.58-.23-.14-.5-.21-.8-.21s-.57.07-.8.21c-.23.14-.41.33-.54.58-.13.25-.2.53-.2.86s.06.6.19.85c.13.25.3.44.53.58.23.14.49.21.78.21Z" fill="#fff"/>
</svg>