<?xml version="1.0" encoding="UTF-8"?>
<svg id="Layer_1" xmlns="http://www.w3.org/2000/svg" width="96" height="96" baseProfile="tiny" version="1.2" viewBox="0 0 96 96">
  <circle cx="47.73" cy="47.95" r="47.95" fill="#231f20"/>
  <path d="M30.68,23.01v17.88h-3.97l-7.05-9.01v9.01h-5.39v-17.88h4.46l6.56,8.96v-8.96h5.39Z" fill="#fff"/>
  <path d="M38.71,27.66v2.15h6.86v4.41h-6.86v2.01h8.33v4.65h-13.71v-17.88h13.71v4.65h-8.33Z" fill="#fff"/>
  <path d="M66.4,23.01l-6.29,17.88h-6.24l-6.29-17.88h5.88l3.65,11.68,3.43-11.68h5.88Z" fill="#fff"/>
  <path d="M72.86,27.66v2.15h6.86v4.41h-6.86v2.01h8.32v4.65h-13.71v-17.88h13.71v4.65h-8.32Z" fill="#fff"/>
  <path d="M24.44,57.96h4.67v2.52c-.95.15-1.87.25-2.7.25-3.56,0-5.38-2.09-5.38-5.56,0-3.26,1.84-5.38,5.75-5.38,1.78,0,3.72.58,5.13,1.63l3.01-4.73c-2.12-1.78-5.01-3.04-8.76-3.04-7.62,0-11.89,4.15-11.89,11.52s4.21,11.52,11.71,11.52c3.75,0,6.85-.74,8.97-2.03v-11.61h-10.51v4.92Z" fill="#fff"/>
  <polygon points="43.15 43.94 35.56 66.37 42.32 66.37 42.32 66.37 52.65 66.37 52.65 66.37 59.41 66.37 51.2 43.94 43.15 43.94" fill="#fff"/>
  <polygon points="74.43 43.94 74.43 55.19 66.19 43.94 60.6 43.94 60.6 66.37 67.36 66.37 67.36 55.07 76.21 66.37 81.19 66.37 81.19 43.94 74.43 43.94" fill="#fff"/>
  <path d="M47.4,54.99l.29,1.82c.09.29.41.31.52.45.03.04.35.72.35.76.01.15-.09.22-.09.31,0,.56.17,1.26.16,1.82,0,.13-.16.27-.13.45l.24.1.03.1c-.16.48-.35.78-.8,1.02s-1.11.16-1.02.83h-.28c-.22-.22,0-.52,0-.68,0-.08-.1-.19-.11-.32-.02-.32.14-.6-.06-.96l.33-.2c.12-.15-.06-.46-.07-.65-.05-.68.11-1.75-.1-2.37-.04-.12-.21-.26-.21-.36,0-.07.11-.16.1-.26,0-.12-.15-.49-.11-.71.02-.11.23-.17.31-.26.15-.17.3-.7.45-.83.07-.06.11-.05.2-.04Z" fill="#fff"/>
  <path d="M32.92,67.38l2.59-1.96c.75-.15,1.01-.38,1.56-.8.36-.28.9-.31,1.34-.45.18-.05.34-.18.5-.21.47-.08,1-.07,1.46-.25.16-.07.53-.42.72-.5.24-.1,1.08-.21,1.38-.26.08-.01.26.01.3-.01.02-.02.04-.19.19-.26.21-.09.52-.2.76-.29.19-.07.62-.12.69-.36s-.13-.4.21-.55c.44-.19.68-.11.99-.6.13-.21.07-.27.1-.49l-.12-.07c.05-.17.11-.44.13-.63s-.04-.3-.04-.46.04-.61,0-.75c-.02-.07-.12-.13-.17-.21-.31-.59.26-1.24.38-1.82.1-.52-.23-.34-.39-.64-.07-.14-.08-.41-.06-.56.03-.19.17-.32.2-.43.04-.14.05-.17.08-.29.03-.09-.01-.2,0-.28.01-.05.12-.05.15-.11s.02-.16.05-.24c.23-.53.47-1.12.55-1.71.09-.65-.05-1.3.22-1.92.06-.13.19-.25.23-.4l-.16-.24.29-.3c-.16-.05-.2-.29-.31-.36-.09-.05-.18-.02-.25-.08-.11-.09-.39-.63-.39-.76.03-.86.86-1.42,1.68-1.28.28.05.59.41.67.67.09.33-.09.51.33.68,0,.12-.61-.01-.54.28s.21.09.32.05c.06-.02.12.02.17,0,.11-.04.49-.29.59-.21.06.13.04.27.09.41.05.12.13.32.19.44.06.14.22.22.26.45.05.31-.12.39-.12.58s.1.54.13.76c.03.34.04.66.09,1,.07.48.05,1.26,0,1.76s-.47.9-.53,1.27c-.01.07.04.21.03.33,0,.04-.1.38-.11.4-.05.09-.47.21-.48.36.03.23.08.52.09.75,0,.15-.06.36-.04.46,0,.07.16.29.2.39.24.58.31,1.16.46,1.76.06.25.1.5.18.75,0,.19-.29.31-.3.33,0,.09.13.17.13.25,0,.06-.08.11-.08.17,0,.05.12.24.13.38s-.04.26-.04.4c.28.02.68-.14.93.04.05.04.06.11.12.15.83.57,2.6-.05,3.57.21.07.04.23.54.32.65.22.26.65.4.88.65.1.1.18.28.25.36.08.09.3.12.31.27,0,.08-.09.22.01.31.09.08.62.18.8.31.15.11.21.34.28.39.06.04.2.04.29.09.35.17.9.42,1.28.48.29.04.57-.07.84-.04.2.02.36.22.6.15l2.18,1.66h-29.32ZM47.48,56.9c-.06,0-.08-.01-.13.03-.1.09-.2.43-.29.54-.05.06-.19.1-.2.17-.02.14.07.38.07.46,0,.07-.07.12-.07.17,0,.06.11.15.13.23.14.4.03,1.09.06,1.53,0,.13.13.33.05.42l-.21.13c.13.24.02.42.04.62,0,.09.07.16.07.21,0,.11-.14.29,0,.44h.18c-.06-.44.37-.39.66-.54s.42-.35.52-.66l-.02-.06-.15-.06c-.02-.12.08-.2.08-.29,0-.36-.1-.82-.1-1.18,0-.05.07-.1.06-.2,0-.03-.21-.47-.23-.49-.07-.09-.28-.11-.34-.29l-.19-1.18Z"/>
  <path d="M31.84,75.52c-.35,0-.67-.08-.95-.25-.28-.16-.5-.39-.66-.67-.16-.28-.24-.6-.24-.95s.08-.67.24-.95c.16-.28.38-.51.65-.67.28-.17.59-.25.93-.25.28,0,.52.05.74.15.22.1.4.25.55.43.15.19.25.41.31.67v1.22c-.06.26-.17.48-.32.67-.15.19-.33.34-.54.44-.22.1-.46.15-.73.15ZM31.87,75.3c.45,0,.8-.15,1.07-.45.26-.3.4-.69.4-1.19,0-.33-.06-.62-.18-.87-.12-.25-.29-.44-.52-.58-.22-.14-.48-.21-.78-.21-.31,0-.59.07-.83.21-.24.14-.43.34-.57.58-.14.25-.21.53-.21.84s.07.6.21.84c.14.25.33.44.58.58.25.14.53.21.84.21ZM33.32,75.44v-.96l.07-.89-.07-.86v-.87h.24v3.58h-.24Z" fill="#fff"/>
  <path d="M34.81,75.44v-5.42h.24v5.42h-.24Z" fill="#fff"/>
  <path d="M36.3,76.97v-5.11h.24v.87l-.08.86.08.89v2.48h-.24ZM38.08,75.52c-.27,0-.52-.05-.74-.16-.23-.1-.42-.25-.58-.44-.16-.19-.27-.41-.33-.67v-1.22c.06-.26.17-.49.33-.68.16-.19.36-.33.58-.43.23-.1.47-.15.73-.15.34,0,.65.08.91.25s.48.39.63.67.23.6.23.96-.08.67-.23.95-.36.5-.63.67c-.27.16-.58.25-.92.25ZM38.03,75.3c.31,0,.59-.07.82-.21.24-.14.42-.33.56-.58.13-.25.2-.53.2-.85s-.07-.61-.2-.85c-.14-.25-.32-.44-.55-.58-.23-.14-.5-.21-.8-.21s-.57.07-.79.21c-.23.14-.41.33-.54.58-.13.25-.19.53-.19.86s.06.6.19.84c.13.25.3.44.53.58.23.14.49.21.78.21Z" fill="#fff"/>
  <path d="M41,70.97c-.07,0-.12-.03-.17-.08s-.07-.11-.07-.18c0-.07.02-.13.07-.18.05-.05.1-.07.17-.07.07,0,.13.02.18.07.05.05.07.11.07.18,0,.07-.02.13-.07.18-.05.05-.11.08-.18.08ZM40.88,75.44v-3.58h.24v3.58h-.24Z" fill="#fff"/>
  <path d="M42.38,75.44v-3.58h.24v3.58h-.24ZM45.15,75.44v-2.14c0-.39-.11-.7-.33-.94-.22-.24-.52-.36-.9-.36-.25,0-.48.06-.67.17-.19.11-.35.26-.46.46-.11.19-.17.42-.17.67l-.16-.09c0-.27.07-.51.2-.72.13-.21.31-.38.54-.51.23-.12.48-.19.77-.19s.54.07.75.19c.22.13.38.31.5.54.12.23.18.49.18.79v2.14h-.24Z" fill="#fff"/>
  <path d="M48.2,75.52c-.36,0-.68-.08-.96-.25s-.51-.39-.67-.67-.25-.6-.25-.96.08-.67.24-.95c.16-.28.38-.5.65-.67.28-.16.59-.25.94-.25.32,0,.61.07.85.21s.44.34.58.6c.14.25.21.55.21.88,0,.02,0,.05,0,.1,0,.04,0,.1-.02.17h-3.28v-.23h3.12l-.07.05c.02-.31-.03-.58-.14-.81-.11-.23-.28-.42-.49-.55-.22-.13-.47-.2-.77-.2-.31,0-.59.07-.82.21-.24.14-.42.33-.55.57-.13.24-.2.52-.2.84s.07.62.21.87c.14.25.33.44.58.58.25.14.54.21.87.21.25,0,.48-.05.69-.14.21-.09.39-.23.53-.42l.16.16c-.16.19-.36.34-.61.46s-.52.17-.81.17Z" fill="#fff"/>
  <path d="M54.19,75.52c-.35,0-.66-.08-.94-.25s-.5-.39-.66-.68c-.16-.29-.25-.6-.25-.96s.08-.66.25-.94c.16-.28.38-.5.66-.67s.59-.25.94-.25c.26,0,.5.05.73.14.23.1.42.23.58.4l-.16.16c-.14-.15-.31-.27-.51-.35s-.41-.13-.64-.13c-.3,0-.57.07-.81.21s-.43.34-.57.58c-.14.24-.21.52-.21.83s.07.6.21.85c.14.25.33.45.57.59s.51.22.81.22c.23,0,.45-.04.65-.13s.37-.21.52-.36l.16.16c-.17.18-.36.31-.6.41-.23.1-.48.14-.74.14Z" fill="#fff"/>
  <path d="M56.43,75.44v-5.42h.24v5.42h-.24Z" fill="#fff"/>
  <path d="M59.29,75.52c-.28,0-.53-.07-.75-.2-.22-.13-.39-.32-.52-.55-.12-.24-.19-.51-.19-.82v-2.09h.24v2.08c0,.26.05.5.15.7.1.21.24.37.43.48.18.12.4.17.63.17.36,0,.66-.13.88-.38.22-.25.33-.58.33-.98v-2.08h.24v2.09c0,.31-.06.58-.19.82s-.3.42-.51.56c-.22.13-.47.2-.76.2Z" fill="#fff"/>
  <path d="M61.9,75.44v-5.42h.24v2.71l-.08.86.08.89v.96h-.24ZM63.69,75.52c-.27,0-.52-.05-.74-.16s-.42-.25-.58-.44c-.16-.19-.27-.41-.33-.67v-1.22c.06-.26.17-.49.33-.68.16-.19.36-.33.58-.43.23-.1.47-.15.73-.15.34,0,.65.08.92.25s.48.39.63.67c.16.28.23.6.23.96s-.08.67-.23.95c-.15.28-.36.5-.63.67s-.58.25-.92.25ZM63.64,75.3c.31,0,.59-.07.82-.21.24-.14.42-.33.56-.58s.2-.53.2-.85-.07-.61-.2-.85c-.14-.25-.32-.44-.55-.58-.23-.14-.5-.21-.8-.21s-.57.07-.79.21c-.23.14-.41.33-.54.58-.13.25-.19.53-.19.86s.06.6.19.84c.13.25.3.44.53.58.23.14.49.21.78.21Z" fill="#fff"/>
</svg>